<?xml version="1.0" standalone="no"?>
<!DOCTYPE svg PUBLIC "-//W3C//DTD SVG 20010904//EN"
 "http://www.w3.org/TR/2001/REC-SVG-20010904/DTD/svg10.dtd">
<svg version="1.0" xmlns="http://www.w3.org/2000/svg"
 width="512.000000pt" height="512.000000pt" viewBox="0 0 512.000000 512.000000"
 preserveAspectRatio="xMidYMid meet">
<metadata>
Created by potrace 1.15, written by Peter Selinger 2001-2017
</metadata>
<g transform="translate(0.000000,512.000000) scale(0.100000,-0.100000)"
fill="#000000" stroke="none">
<path d="M2255 5000 c-3 -5 -35 -10 -70 -10 -35 0 -67 -4 -70 -10 -3 -5 -26
-10 -50 -10 -24 0 -47 -4 -50 -10 -3 -5 -21 -10 -40 -10 -19 0 -37 -4 -40 -10
-3 -5 -21 -10 -40 -10 -19 0 -37 -4 -40 -10 -3 -5 -17 -10 -30 -10 -13 0 -27
-4 -30 -10 -3 -5 -17 -10 -30 -10 -13 0 -27 -4 -30 -10 -3 -5 -15 -10 -25 -10
-11 0 -35 -9 -55 -20 -20 -11 -41 -20 -48 -20 -12 0 -297 -139 -307 -150 -3
-3 -15 -11 -27 -17 -56 -32 -68 -39 -87 -55 -11 -10 -24 -18 -28 -18 -5 0 -18
-9 -30 -20 -12 -11 -28 -20 -35 -20 -7 0 -13 -4 -13 -8 0 -4 -13 -15 -28 -24
-16 -10 -51 -38 -78 -63 -27 -24 -53 -45 -57 -45 -12 0 -269 -260 -297 -300
-13 -19 -32 -42 -42 -51 -10 -9 -18 -20 -18 -25 0 -5 -14 -23 -30 -41 -17 -18
-30 -36 -30 -40 0 -4 -14 -24 -30 -43 -16 -19 -30 -41 -30 -47 0 -7 -4 -13
-10 -13 -5 0 -10 -6 -10 -13 0 -7 -9 -23 -20 -35 -11 -12 -20 -28 -20 -36 0
-8 -3 -16 -8 -18 -10 -4 -152 -289 -152 -305 0 -7 -9 -28 -20 -48 -11 -20 -20
-42 -20 -50 0 -9 -4 -23 -9 -33 -15 -30 -51 -149 -51 -170 0 -12 -4 -23 -9
-26 -5 -3 -11 -23 -14 -43 -3 -21 -11 -63 -17 -93 -6 -30 -14 -82 -17 -115 -2
-33 -9 -64 -14 -69 -13 -14 -12 -603 1 -611 6 -3 10 -35 10 -70 0 -35 5 -67
10 -70 6 -3 10 -26 10 -50 0 -24 4 -47 10 -50 6 -3 10 -20 10 -37 0 -31 15
-87 31 -120 5 -10 9 -27 9 -37 0 -11 5 -23 10 -26 5 -3 10 -17 10 -30 0 -13 5
-27 10 -30 6 -3 10 -17 10 -30 0 -13 5 -27 10 -30 6 -3 10 -14 10 -24 0 -10
14 -47 31 -82 18 -35 35 -73 39 -84 27 -66 36 -85 42 -85 5 0 8 -9 8 -20 0
-11 4 -20 9 -20 4 0 23 -30 42 -68 19 -37 42 -76 51 -86 10 -11 18 -24 18 -28
0 -5 9 -18 20 -30 11 -12 20 -28 20 -35 0 -7 4 -13 8 -13 4 0 16 -13 25 -30
10 -16 23 -35 30 -42 7 -7 24 -29 37 -48 63 -90 288 -314 411 -410 24 -19 46
-38 47 -42 2 -4 8 -8 13 -8 7 0 60 -37 119 -83 8 -7 36 -23 63 -36 26 -13 47
-28 47 -33 0 -4 9 -8 19 -8 11 0 21 -3 23 -8 3 -7 233 -122 288 -144 14 -6 33
-14 42 -19 10 -5 27 -9 37 -9 11 0 23 -4 26 -10 3 -5 17 -10 30 -10 13 0 27
-4 30 -10 3 -5 17 -10 30 -10 13 0 27 -4 30 -10 3 -5 17 -10 30 -10 13 0 27
-4 30 -10 3 -5 21 -10 39 -10 17 0 38 -6 44 -12 19 -19 1135 -19 1153 -1 7 7
28 13 45 13 18 0 36 5 39 10 3 5 21 10 40 10 19 0 37 5 40 10 3 6 17 10 30 10
13 0 27 5 30 10 3 6 15 10 25 10 11 0 35 9 55 20 20 11 42 20 50 20 8 0 30 9
50 20 20 11 44 20 55 20 11 0 20 5 20 10 0 6 9 10 20 10 11 0 20 5 20 10 0 6
9 10 20 10 11 0 20 5 20 10 0 6 9 10 20 10 11 0 20 5 20 10 0 6 9 10 20 10 11
0 20 4 20 9 0 5 8 11 18 14 21 7 71 37 90 54 7 7 30 20 50 30 20 9 39 20 42
23 3 3 21 17 40 30 19 13 37 27 40 30 3 3 21 17 40 30 19 13 53 41 75 62 22
21 43 38 48 38 10 0 226 218 260 263 16 21 38 47 50 60 13 12 33 38 47 57 13
19 27 37 30 40 13 10 110 159 110 169 0 5 3 11 8 13 4 1 18 24 31 51 13 26 28
47 33 47 4 0 8 9 8 20 0 11 5 20 10 20 6 0 10 6 10 14 0 8 8 31 19 53 10 21
33 67 50 102 17 35 31 70 31 76 0 7 8 30 19 52 24 49 61 165 61 191 0 12 5 24
10 27 6 3 10 21 10 40 0 19 4 36 9 39 9 6 17 47 27 141 3 28 10 54 15 59 5 6
9 47 9 92 0 46 5 86 10 89 14 8 14 402 0 410 -5 3 -10 39 -10 80 0 41 -4 77
-10 80 -5 3 -10 30 -10 60 0 30 -4 57 -10 60 -5 3 -10 26 -10 50 0 24 -4 47
-10 50 -5 3 -10 21 -10 40 0 19 -4 37 -10 40 -6 3 -10 17 -10 30 0 13 -4 27
-10 30 -5 3 -10 17 -10 30 0 13 -4 27 -10 30 -5 3 -10 17 -10 30 0 13 -4 27
-10 30 -5 3 -10 15 -10 26 0 10 -4 27 -9 37 -5 9 -13 28 -19 42 -22 55 -137
285 -144 288 -5 2 -8 12 -8 23 0 10 -4 19 -10 19 -5 0 -10 5 -10 10 0 12 -95
155 -122 184 -10 11 -18 25 -18 32 0 7 -4 14 -8 16 -4 2 -23 23 -42 47 -99
127 -318 346 -410 411 -19 13 -41 30 -48 37 -7 7 -26 20 -42 30 -17 9 -30 21
-30 25 0 4 -6 8 -13 8 -7 0 -23 9 -35 20 -12 11 -25 20 -30 20 -4 0 -17 8 -28
18 -17 15 -69 45 -131 76 -13 6 -23 14 -23 19 0 4 -9 7 -20 7 -11 0 -20 5 -20
10 0 6 -9 10 -20 10 -11 0 -20 5 -20 10 0 6 -9 10 -20 10 -11 0 -20 5 -20 10
0 6 -9 10 -20 10 -11 0 -20 5 -20 10 0 6 -9 10 -20 10 -11 0 -35 9 -55 20 -20
11 -44 20 -55 20 -10 0 -22 5 -25 10 -3 6 -17 10 -30 10 -13 0 -27 5 -30 10
-3 6 -17 10 -30 10 -13 0 -27 5 -30 10 -3 6 -17 10 -30 10 -13 0 -27 5 -30 10
-3 6 -21 10 -40 10 -19 0 -37 5 -40 10 -3 6 -21 10 -40 10 -19 0 -37 5 -40 10
-3 6 -26 10 -50 10 -24 0 -47 5 -50 10 -3 6 -35 10 -70 10 -35 0 -67 5 -70 10
-4 6 -115 10 -300 10 -185 0 -296 -4 -300 -10z m695 -124 c964 -167 1714 -894
1910 -1850 11 -54 20 -108 19 -120 0 -11 -11 29 -24 91 -42 206 -135 464 -223
623 -87 158 -221 347 -337 475 l-45 50 -2 -50 -1 -50 -7 60 c-6 57 -7 55 -8
-33 -1 -59 -6 -91 -12 -87 -6 4 -11 -11 -12 -37 -1 -35 -3 -31 -8 22 -6 63 -7
63 -8 -32 -1 -53 -6 -100 -12 -103 -5 -3 -11 -21 -12 -38 -1 -18 -4 2 -8 43
l-6 75 -2 -102 c-1 -61 -6 -103 -12 -103 -5 0 -11 -12 -12 -27 0 -16 -4 -6 -8
22 -6 47 -7 46 -8 -27 -1 -42 -6 -80 -12 -83 -5 -3 -11 -16 -12 -28 -1 -12 -4
7 -8 43 l-7 65 -1 -88 c-1 -56 -6 -86 -12 -82 -6 4 -11 -8 -12 -27 -1 -23 -3
-16 -8 22 l-7 55 -1 -77 c-1 -42 -6 -80 -12 -83 -5 -3 -11 -16 -12 -28 -1 -12
-4 7 -8 43 l-7 65 -1 -82 c-1 -48 -6 -83 -12 -83 -5 0 -11 -10 -12 -22 0 -13
-4 -3 -8 22 -7 43 -7 41 -8 -23 -1 -43 -6 -66 -12 -62 -6 3 -11 -6 -12 -22 0
-16 -4 -7 -8 22 l-7 50 -1 -68 c-1 -43 -6 -66 -12 -62 -6 3 -11 -6 -12 -22 0
-16 -4 -7 -8 22 l-7 50 -1 -62 c-1 -35 -6 -63 -12 -63 -5 0 -11 -10 -12 -22 0
-13 -4 -3 -8 22 -7 45 -7 44 -8 -17 -1 -35 -6 -63 -11 -63 -5 0 -12 -8 -14
-17 -3 -10 -6 0 -7 22 -2 39 -3 39 -10 10 -4 -16 -8 -24 -9 -17 0 8 -19 31
-42 53 -65 62 -187 109 -284 109 -36 0 -45 -4 -46 -17 0 -15 -2 -15 -9 2 -7
16 -9 14 -9 -15 -1 -26 -4 -31 -11 -20 -8 12 -10 10 -11 -10 -1 -14 -5 -6 -9
20 -6 40 -7 41 -8 12 -2 -30 -4 -32 -17 -18 -8 8 -15 19 -15 25 0 6 -6 8 -13
5 -7 -2 -48 32 -92 78 -165 172 -255 270 -255 279 0 5 -9 20 -21 33 -12 13
-19 26 -18 29 6 7 -110 95 -154 118 -51 27 -70 19 -25 -9 49 -31 102 -91 135
-154 23 -46 27 -65 27 -143 0 -83 -2 -95 -34 -153 -66 -124 -176 -192 -310
-192 -134 0 -244 68 -310 192 -32 59 -34 69 -34 153 1 101 14 139 73 220 l36
50 -38 -29 c-60 -46 -125 -140 -147 -215 -19 -65 -32 -234 -17 -224 6 4 12
-37 8 -59 0 -5 3 -8 9 -8 6 0 10 -36 10 -87 0 -61 -3 -83 -10 -73 -9 13 -10
13 -11 0 0 -10 -3 -8 -9 5 l-9 20 0 -20 c-1 -17 -3 -17 -11 -5 -9 13 -10 13
-10 0 0 -9 33 -30 82 -54 71 -33 203 -110 218 -126 3 -3 23 -18 45 -34 22 -16
58 -47 81 -68 l41 -39 42 38 c167 149 443 288 661 332 73 14 178 29 268 37
l72 6 -2 -638 -3 -639 -110 -7 c-322 -20 -598 -130 -852 -341 l-73 -60 -73 60
c-254 211 -530 321 -852 341 l-110 7 -5 620 c-3 341 -6 611 -8 599 -1 -11 -13
-31 -27 -44 -53 -49 -67 -116 -73 -335 -4 -116 -9 -183 -13 -160 -3 22 -7 -88
-8 -245 -1 -226 -5 -289 -16 -303 -13 -18 -14 -17 -19 5 -3 13 -3 -23 0 -79 3
-69 10 -119 23 -152 11 -27 17 -52 13 -56 -4 -4 -1 -5 6 -3 8 2 19 -6 25 -17
7 -11 20 -27 30 -36 11 -10 17 -31 17 -56 0 -23 6 -45 13 -51 16 -13 69 -28
142 -42 33 -6 80 -15 105 -21 25 -5 77 -15 117 -23 59 -11 78 -20 107 -50 23
-22 36 -45 36 -61 0 -15 -4 -24 -10 -20 -5 3 -11 0 -11 -7 -1 -7 -5 3 -9 22
l-7 35 -2 -40 c-2 -32 -4 -36 -11 -20 -8 18 -9 18 -10 -5 l-2 -25 -8 25 -8 25
-1 -28 c-1 -16 -5 -26 -11 -22 -5 3 -11 0 -11 -7 -1 -7 -5 3 -9 22 l-7 35 -2
-40 c-2 -32 -4 -36 -11 -20 -8 18 -9 18 -10 -5 l-2 -25 -8 25 -8 25 -1 -28
c-1 -16 -5 -26 -11 -22 -5 3 -11 0 -11 -7 -1 -7 -5 3 -9 22 l-7 35 -2 -40 c-2
-32 -4 -36 -11 -20 -8 19 -9 18 -11 -5 -1 -16 -5 -8 -9 20 l-7 45 -1 -41 c-2
-50 -28 -69 -35 -26 -3 23 -4 22 -6 -8 -1 -27 -4 -31 -11 -20 -8 13 -10 12
-11 -5 -1 -11 -5 -2 -9 20 l-7 40 -2 -45 c-1 -33 -4 -41 -11 -30 -8 13 -10 12
-11 -5 -1 -14 -4 -10 -9 10 l-8 30 -1 -28 c0 -16 -5 -26 -11 -22 -6 3 -11 0
-11 -7 -1 -7 -5 3 -9 22 l-7 35 -2 -40 c-2 -32 -4 -36 -11 -20 -8 18 -9 18
-10 -5 l-2 -25 -8 25 -8 25 -1 -27 c-1 -35 -24 -33 -32 2 -6 22 -7 20 -8 -10
-1 -27 -4 -31 -11 -20 -8 13 -10 12 -11 -5 -1 -11 -5 -2 -9 20 l-7 40 -2 -38
c0 -23 -5 -36 -11 -32 -5 3 -10 0 -11 -7 -1 -7 -5 -2 -9 12 l-8 25 -1 -28 c-1
-16 -5 -26 -11 -22 -5 3 -11 0 -11 -7 -1 -7 -5 3 -9 22 l-7 35 -2 -35 c-1 -27
-4 -31 -11 -20 -8 13 -10 12 -11 -5 -1 -11 -5 -2 -9 20 l-7 40 -2 -45 c-1 -33
-4 -41 -11 -30 -9 13 -10 13 -11 0 0 -8 -5 -4 -9 10 l-8 25 -1 -27 c-1 -35
-24 -33 -32 2 -6 22 -7 20 -8 -10 -1 -27 -4 -31 -11 -20 -8 13 -10 12 -11 -5
-1 -11 -5 -2 -9 20 l-7 40 -2 -40 c-2 -32 -4 -36 -11 -20 -8 18 -9 18 -10 -5
l-2 -25 -8 25 c-7 23 -8 23 -9 4 -2 -34 -31 -39 -32 -6 l-2 27 -4 -28 c-2 -15
-9 -25 -14 -22 -5 4 -10 0 -10 -7 -1 -7 -5 3 -9 22 l-7 35 -2 -40 c-2 -32 -4
-36 -11 -20 l-9 20 -2 -20 c-1 -11 -5 -2 -9 20 l-7 40 -2 -45 c-1 -33 -4 -41
-11 -30 -9 13 -10 13 -11 0 0 -8 -5 -4 -9 10 l-8 25 -1 -27 c-1 -35 -24 -33
-32 2 -6 24 -7 24 -8 -4 -1 -24 -3 -27 -16 -16 -8 7 -15 20 -16 29 0 11 -2 12
-6 3 -3 -8 -26 9 -63 47 -366 377 -592 845 -656 1360 -20 167 -18 437 5 596
111 750 577 1401 1248 1743 271 138 548 220 847 252 150 16 455 4 616 -24z"/>
</g>
</svg>
